<svg width="20" height="20" viewBox="0 0 20 20" fill="none" xmlns="http://www.w3.org/2000/svg">
<path d="M1.6665 8.33338C1.6665 5.97635 1.6665 4.79784 2.39874 4.06561C3.13097 3.33337 4.30948 3.33337 6.6665 3.33337V3.33337C7.55056 3.33337 8.39841 3.66505 9.02353 4.25545C9.64865 4.84584 9.99984 5.64658 9.99984 6.48152V17.5C9.99984 16.8738 9.73645 16.2733 9.2676 15.8305C8.79876 15.3877 8.16288 15.1389 7.49984 15.1389H6.6665C4.30948 15.1389 3.13097 15.1389 2.39874 14.4067C1.6665 13.6745 1.6665 12.496 1.6665 10.1389V8.33338Z" fill="#7070FF" fill-opacity="0.2"/>
<path d="M18.3332 8.33338C18.3332 5.97635 18.3332 4.79784 17.6009 4.06561C16.8687 3.33337 15.6902 3.33337 13.3332 3.33337V3.33337C12.4491 3.33337 11.6013 3.66505 10.9761 4.25545C10.351 4.84584 9.99984 5.64658 9.99984 6.48152V17.5C9.99984 16.8738 10.2632 16.2733 10.7321 15.8305C11.2009 15.3877 11.8368 15.1389 12.4998 15.1389H13.3332C15.6902 15.1389 16.8687 15.1389 17.6009 14.4067C18.3332 13.6745 18.3332 12.496 18.3332 10.1389V8.33338Z" fill="#7070FF" fill-opacity="0.2"/>
<path d="M9.99984 6.48152C9.99984 5.64658 9.64865 4.84584 9.02353 4.25545C8.39841 3.66505 7.55056 3.33337 6.6665 3.33337V3.33337C4.30948 3.33337 3.13097 3.33337 2.39874 4.06561C1.6665 4.79784 1.6665 5.97635 1.6665 8.33338V10.1389C1.6665 12.496 1.6665 13.6745 2.39874 14.4067C3.13097 15.1389 4.30948 15.1389 6.6665 15.1389H7.49984C8.16288 15.1389 8.79876 15.3877 9.2676 15.8305C9.73645 16.2733 9.99984 16.8738 9.99984 17.5M9.99984 6.48152V17.5M9.99984 6.48152C9.99984 5.64658 10.351 4.84584 10.9761 4.25545C11.6013 3.66505 12.4491 3.33337 13.3332 3.33337V3.33337C15.6902 3.33337 16.8687 3.33337 17.6009 4.06561C18.3332 4.79784 18.3332 5.97635 18.3332 8.33338V10.1389C18.3332 12.496 18.3332 13.6745 17.6009 14.4067C16.8687 15.1389 15.6902 15.1389 13.3332 15.1389H12.4998C11.8368 15.1389 11.2009 15.3877 10.7321 15.8305C10.2632 16.2733 9.99984 16.8738 9.99984 17.5" stroke="#7070FF" stroke-width="1.2" stroke-linecap="round" stroke-linejoin="round"/>
</svg>
